<?xml version="1.0" encoding="utf-8"?>
<!-- Generator: Adobe Illustrator 25.0.1, SVG Export Plug-In . SVG Version: 6.00 Build 0)  -->
<svg version="1.1" id="Layer_1" xmlns="http://www.w3.org/2000/svg" xmlns:xlink="http://www.w3.org/1999/xlink" x="0px" y="0px"
	 viewBox="0 0 50 50" style="enable-background:new 0 0 50 50;" xml:space="preserve">
<style type="text/css">
	.st0{fill:#FFFFFF;}
</style>
<path class="st0" d="M24.6,47.74c-12.68,0-23-10.32-23-23c0-12.68,10.32-23,23-23s23,10.32,23,23C47.6,37.42,37.28,47.74,24.6,47.74
	z M24.6,3.74c-11.58,0-21,9.42-21,21c0,11.58,9.42,21,21,21s21-9.42,21-21C45.6,13.16,36.18,3.74,24.6,3.74z"/>
<path id="Shape" class="st0" d="M25.9,37.74H21v-11.5h-2.4v-4H21v-2.4c0-3.2,1.4-5.2,5.3-5.2h3.3v4h-2c-1.5,0-1.6,0.6-1.6,1.6v2h3.6
	l-0.4,4h-3.3V37.74L25.9,37.74z"/>
</svg>
