<?xml version="1.0" encoding="utf-8"?>
<!-- Generator: Adobe Illustrator 25.2.1, SVG Export Plug-In . SVG Version: 6.00 Build 0)  -->
<svg version="1.1" id="Layer_1" xmlns="http://www.w3.org/2000/svg" xmlns:xlink="http://www.w3.org/1999/xlink" x="0px" y="0px"
	 viewBox="0 0 862.07 252.45" style="enable-background:new 0 0 862.07 252.45;" xml:space="preserve">
<style type="text/css">
	.st0{fill:#F56D16;}
</style>
<g>
	<path class="st0" d="M257.79,151.97h-13.64v-32.15h-18.01v32.15H212.5V78.64h13.64v29.14h18.01V78.64h13.64V151.97z"/>
	<path class="st0" d="M290.54,152.97c-6.99,0-12.5-2.48-16.53-7.45c-4.03-4.97-6.04-12-6.04-21.09c0-9.23,1.82-16.43,5.47-21.62
		c3.64-5.18,8.73-7.77,15.25-7.77c6.09,0,10.88,2.21,14.4,6.65c3.51,4.43,5.27,10.64,5.27,18.63v7.12h-26.83
		c0.1,4.98,1.12,8.69,3.06,11.11c1.94,2.42,4.61,3.64,8.02,3.64c4.35,0,8.79-1.35,13.34-4.06v10.98
		C301.66,151.69,296.53,152.97,290.54,152.97z M288.59,105.32c-1.91,0-3.48,1.01-4.71,3.03c-1.24,2.02-1.96,5.16-2.16,9.4h13.54
		c-0.07-4.08-0.69-7.17-1.86-9.28C292.23,106.38,290.62,105.32,288.59,105.32z"/>
	<path class="st0" d="M330.52,151.97h-13.34V73.93h13.34V151.97z"/>
	<path class="st0" d="M366.63,152.97c-2.41,0-4.54-0.54-6.39-1.63s-3.59-3-5.19-5.74h-0.7c0.53,4.55,0.8,7.29,0.8,8.23v22.82H341.7
		V96.1h10.33l2.31,7.27h0.6c2.78-5.55,6.8-8.33,12.09-8.33c5.08,0,9.06,2.52,11.94,7.55s4.31,12.15,4.31,21.34
		c0,9.06-1.49,16.17-4.46,21.32S371.78,152.97,366.63,152.97z M362.52,106.38c-2.61,0-4.49,1.21-5.64,3.64
		c-1.15,2.42-1.76,6.45-1.83,12.06v1.75c0,6.15,0.58,10.63,1.76,13.44c1.17,2.81,3.11,4.21,5.82,4.21c4.68,0,7.02-5.92,7.02-17.76
		c0-5.82-0.58-10.16-1.73-13.04C366.76,107.82,364.96,106.38,362.52,106.38z"/>
	<path class="st0" d="M392.21,81.5c0-2.21,0.64-3.95,1.93-5.24c1.29-1.29,3.08-1.93,5.39-1.93c2.17,0,3.91,0.64,5.22,1.93
		s1.96,3.03,1.96,5.24c0,2.27-0.67,4.04-2.01,5.29c-1.34,1.25-3.06,1.88-5.17,1.88c-2.21,0-3.98-0.63-5.32-1.88
		C392.88,85.54,392.21,83.77,392.21,81.5z M406.1,151.97h-13.34V96.1h13.34V151.97z"/>
	<path class="st0" d="M445.38,151.97v-33.3c0-4.05-0.48-7.11-1.45-9.18c-0.97-2.07-2.54-3.11-4.71-3.11c-2.88,0-4.98,1.43-6.32,4.29
		c-1.34,2.86-2.01,7.68-2.01,14.47v26.83h-13.34V96.1h10.58l1.61,7.17h0.85c1.2-2.57,2.93-4.59,5.17-6.04
		c2.24-1.46,4.87-2.18,7.88-2.18c5.08,0,8.89,1.74,11.41,5.22c2.52,3.48,3.79,8.56,3.79,15.25v36.46H445.38z"/>
	<path class="st0" d="M509.83,96.2v7.82l-6.67,1.5c1.3,2.34,1.96,5.28,1.96,8.83c0,5.92-1.61,10.55-4.82,13.89
		s-7.69,5.02-13.44,5.02c-1.67,0-2.91-0.13-3.71-0.4c-0.63,0.57-1.24,1.2-1.81,1.91s-0.85,1.57-0.85,2.61
		c0,2.34,2.02,3.51,6.07,3.51h8.08c4.75,0,8.4,1.28,10.96,3.84c2.56,2.56,3.84,6.41,3.84,11.56c0,6.49-2.17,11.5-6.52,15.05
		c-4.35,3.54-10.6,5.32-18.76,5.32c-6.19,0-10.95-1.35-14.29-4.04c-3.34-2.69-5.02-6.53-5.02-11.51c0-3.11,0.95-5.84,2.86-8.2
		s4.55-4.07,7.92-5.14c-1.71-0.67-3.1-1.71-4.19-3.11c-1.09-1.4-1.63-3.04-1.63-4.92c0-1.14,0.17-2.17,0.5-3.08
		c0.33-0.92,0.81-1.79,1.43-2.61c0.62-0.82,1.88-2.03,3.79-3.64c-2.31-1.41-4.13-3.56-5.47-6.47c-1.34-2.91-2.01-6.14-2.01-9.68
		c0-6.12,1.6-10.85,4.81-14.19s7.81-5.02,13.79-5.02c1.14,0,2.44,0.12,3.91,0.38c1.47,0.25,2.59,0.51,3.36,0.78H509.83z
		 M476.98,160.1c0,2.21,0.69,3.9,2.08,5.09c1.39,1.19,3.37,1.78,5.94,1.78c4.04,0,7.08-0.77,9.1-2.31c2.02-1.54,3.03-3.64,3.03-6.32
		c0-2.11-0.54-3.59-1.63-4.46c-1.09-0.87-3.12-1.3-6.09-1.3h-6.47c-1.81,0-3.25,0.68-4.34,2.03
		C477.52,155.96,476.98,157.79,476.98,160.1z M481.09,114.35c0,6.59,1.86,9.88,5.57,9.88c3.61,0,5.42-3.33,5.42-9.98
		c0-6.82-1.81-10.23-5.42-10.23C482.95,104.02,481.09,107.47,481.09,114.35z"/>
	<path class="st0" d="M588.03,151.97h-13.64v-32.15h-18.01v32.15h-13.64V78.64h13.64v29.14h18.01V78.64h13.64V151.97z"/>
	<path class="st0" d="M627.55,151.97l-2.66-7.62h-0.3c-1.97,3.28-4.01,5.53-6.12,6.77c-2.11,1.24-4.77,1.86-7.98,1.86
		c-4.11,0-7.35-1.54-9.71-4.61c-2.36-3.08-3.54-7.36-3.54-12.84c0-5.88,1.61-10.26,4.84-13.12c3.23-2.86,8.05-4.44,14.47-4.74
		l7.42-0.3v-4.01c0-5.22-2.26-7.83-6.77-7.83c-3.34,0-7.19,1.3-11.54,3.91l-4.62-9.23c5.55-3.51,11.59-5.27,18.11-5.27
		c5.92,0,10.42,1.7,13.52,5.09c3.09,3.39,4.64,8.2,4.64,14.42v37.52H627.55z M615.97,142.54c2.44,0,4.39-1.09,5.84-3.29
		c1.46-2.19,2.18-5.11,2.18-8.75v-4.71l-4.11,0.2c-3.04,0.17-5.28,1.04-6.7,2.61c-1.42,1.57-2.13,3.91-2.13,7.02
		C611.05,140.23,612.69,142.54,615.97,142.54z"/>
	<path class="st0" d="M675.95,151.97v-33.3c0-4.05-0.48-7.11-1.45-9.18c-0.97-2.07-2.54-3.11-4.71-3.11c-2.88,0-4.98,1.43-6.32,4.29
		c-1.34,2.86-2.01,7.68-2.01,14.47v26.83h-13.34V96.1h10.58l1.61,7.17h0.85c1.2-2.57,2.93-4.59,5.17-6.04
		c2.24-1.46,4.87-2.18,7.88-2.18c5.08,0,8.89,1.74,11.41,5.22c2.52,3.48,3.79,8.56,3.79,15.25v36.46H675.95z"/>
	<path class="st0" d="M714.88,152.97c-5.15,0-9.21-2.54-12.19-7.62c-2.98-5.08-4.46-12.15-4.46-21.22c0-9.09,1.45-16.22,4.36-21.37
		c2.91-5.15,6.92-7.72,12.04-7.72c2.54,0,4.74,0.63,6.6,1.88s3.57,3.37,5.14,6.34h0.8c-0.4-5.08-0.6-8.64-0.6-10.68V73.93h13.34
		v78.04h-9.93l-2.26-7.27h-0.45C724.42,150.22,720.29,152.97,714.88,152.97z M719.19,141.69c2.47,0,4.28-1.13,5.42-3.39
		c1.14-2.26,1.76-6.36,1.86-12.31v-1.76c0-6.49-0.58-11.05-1.73-13.69c-1.15-2.64-3.05-3.96-5.69-3.96c-2.48,0-4.27,1.51-5.39,4.54
		c-1.12,3.03-1.68,7.43-1.68,13.22s0.57,10.12,1.71,13.02C714.81,140.24,716.65,141.69,719.19,141.69z"/>
	<path class="st0" d="M781.13,135.62c0,5.45-1.6,9.71-4.79,12.77c-3.19,3.06-7.9,4.59-14.12,4.59c-5.52,0-10.08-1.09-13.69-3.26
		v-11.59c1.84,1.27,3.99,2.33,6.45,3.16c2.46,0.84,4.62,1.25,6.5,1.25c2.07,0,3.65-0.51,4.74-1.53c1.09-1.02,1.63-2.37,1.63-4.04
		c0-1.71-0.57-3.19-1.71-4.46c-1.14-1.27-3.23-2.83-6.27-4.67c-4.05-2.41-6.95-4.97-8.7-7.7c-1.76-2.72-2.63-5.94-2.63-9.66
		c0-4.75,1.63-8.51,4.89-11.29c3.26-2.78,7.73-4.16,13.42-4.16c4.95,0,9.61,1.3,13.99,3.91l-4.36,9.58
		c-3.58-1.94-6.72-2.91-9.43-2.91c-1.71,0-2.98,0.45-3.84,1.35c-0.85,0.9-1.28,2.01-1.28,3.31c0,1.5,0.53,2.84,1.58,4.01
		c1.05,1.17,3.02,2.62,5.89,4.36c3.48,2.11,5.92,3.9,7.32,5.37s2.49,3.14,3.26,5.02C780.75,130.92,781.13,133.11,781.13,135.62z"/>
</g>
<g>
	<path class="st0" d="M74.77,63.51c-0.01,0.03-0.03,0.06-0.04,0.09c0,0,0,0,0,0C74.75,63.57,74.76,63.54,74.77,63.51z"/>
	<path class="st0" d="M176.04,147.96c-3.72-21.14-2.51-17.71-5.75-34.94c-0.01-0.04-0.01-0.07-0.02-0.11
		c-1.66-17.85-2.76-28.86-6.65-40.69c-1.1-3.35-11.23-35.34-46.57-34.09C92.5,38.99,80.49,52.96,74.73,63.6
		c-0.08,0.17-0.17,0.35-0.26,0.53c0.09-0.18,0.18-0.35,0.26-0.53c-0.69,1.27-1.29,2.5-1.81,3.65c0,0,0.03-0.05,0.07-0.15
		c-0.02,0.05-0.05,0.1-0.07,0.15c-5.46,11.02-3.79,6.95-8.46,16.08c-0.05,0.09-1.26,3.44-1.28,3.54
		c-3.24,12.34-4.26,19.27-7.64,30.67c-0.27,0.91-3.4,14.21-5.35,16.01c-1.75,1.62-5.68,7.96-6.47,9.23
		c-0.1,0.17-0.16,0.36-0.18,0.55c-0.05,0.81,0.08,2.98,2.59,4.78c3.15,2.25,11.92-0.16,13.12-0.61c1.2-0.45,8.99-4.89,12.48-15.76
		c2.5-7.78,6.34-21.68,8.06-23.08c0.71-0.26,1.76,5.59,3.34,12.56c1.55,6.83,3.63,14.72,4.35,20.55c1.25,10.12,0.61,10.41,2.07,26
		c0.09,0.96,0.4,4.59,0.79,8.39c0.98,9.48,0.81,7.74,1.48,12.18c0.25,1.63-0.03,11.52,6.02,16.12c1.35,1.02,4.72,1.99,6.26,1.33
		c2.39-1.03,2.95-3.36,3.35-5.93c0.25-1.62-0.12-9.77-0.06-12.13c0.15-5.54-0.17-9.2-0.17-9.2c-0.41-11.44-0.72-13.35-1.21-24.46
		c-0.2-4.46-0.17-18.99,3.35-13.92c1.55,2.23,3.33,24.91,5.05,39.63c1.72,14.72,1.89,20.03,3.1,25.84c0.62,2.99,3.11,6.25,5.43,8.12
		c2.36,1.9,5.88,2.34,8.97-0.94c2.35-2.49,1.56-5.33,0.87-10.02c-0.98-6.62-0.66-12.93-1.6-30.15c-0.94-17.22-0.16-7.99-1.41-22.55
		c-0.84-7.53-0.32-15.43,2.2-15.38c0.57,0.01,1.03,0.48,1.11,1.04c1.55,11.5,3.55,26.24,4.32,31c0.78,4.85,1.06,15.94,3.29,26.33
		c0.22,0.89,1.42,11.5,8.7,10.9c0.18-0.02,0.36-0.07,0.51-0.17c5.38-3.32,5.34-10.46,5.13-13.48c-0.05-0.69,0.2-5.52-0.02-8.15
		c-0.21-2.55,0.21-4.52-1.89-21.91c-0.01-0.04-0.01-0.09-0.01-0.13c-0.05-6.06-3.76-34.99-0.08-35.46
		c1.77-2.76,8.31,24.3,8.83,28.79c2.41,21.17,10.1,20.89,11.93,20.5c0.27-0.06,0.5-0.2,0.68-0.41
		C175.58,172.24,179.25,166.19,176.04,147.96z M73.08,66.92c-0.01,0.01-0.01,0.02-0.02,0.03C73.07,66.95,73.08,66.93,73.08,66.92z
		 M74.14,64.79c-0.15,0.31-0.31,0.63-0.48,0.97C73.81,65.46,73.97,65.13,74.14,64.79z M119.03,115.72
		c-27.75-26.27-29-34.11-28.39-42.16c0.58-7.65,5-14.12,14.62-13.98c10.25,0.15,13.77,13.98,13.77,13.98s3.52-13.83,13.77-13.98
		c9.62-0.14,14.03,6.33,14.62,13.98C148.04,81.6,146.79,89.45,119.03,115.72z"/>
</g>
</svg>
