<?xml version="1.0" encoding="utf-8"?>
<!-- Generator: Adobe Illustrator 25.2.1, SVG Export Plug-In . SVG Version: 6.00 Build 0)  -->
<svg version="1.1" id="Layer_1" xmlns="http://www.w3.org/2000/svg" xmlns:xlink="http://www.w3.org/1999/xlink" x="0px" y="0px"
	 viewBox="0 0 200 200" style="enable-background:new 0 0 200 200;" xml:space="preserve">
<style type="text/css">
	.st0{fill:#F56D16;}
</style>
<g>
	<path class="st0" d="M58.6,36.9L58.6,36.9L58.6,36.9L58.6,36.9z"/>
	<path class="st0" d="M159.9,121.3c-3.7-21.1-2.5-17.7-5.8-34.9v-0.1c-1.7-17.8-2.8-28.9-6.6-40.7c-1.1-3.3-11.2-35.3-46.6-34.1
		C76.4,12.4,64.3,26.3,58.6,37c-0.1,0.2-0.2,0.3-0.3,0.5c0.1-0.2,0.2-0.3,0.3-0.5c-0.7,1.3-1.3,2.5-1.8,3.6c0,0,0-0.1,0.1-0.2
		c0,0.1-0.1,0.1-0.1,0.2c-5.5,11-3.8,6.9-8.5,16.1c-0.1,0.1-1.3,3.4-1.3,3.5c-3.2,12.3-4.3,19.3-7.6,30.7c-0.3,0.9-3.4,14.2-5.3,16
		c-1.8,1.6-5.7,8-6.5,9.2c-0.1,0.2-0.2,0.4-0.2,0.6c0,0.8,0.1,3,2.6,4.8c3.2,2.2,11.9-0.2,13.1-0.6c1.2-0.4,9-4.9,12.5-15.8
		c2.5-7.8,6.3-21.7,8.1-23.1c0.7-0.3,1.8,5.6,3.3,12.6c1.6,6.8,3.6,14.7,4.3,20.6c1.2,10.1,0.6,10.4,2.1,26c0.1,1,0.4,4.6,0.8,8.4
		c1,9.5,0.8,7.7,1.5,12.2c0.2,1.6,0,11.5,6,16.1c1.3,1,4.7,2,6.3,1.3c2.4-1,2.9-3.4,3.3-5.9c0.2-1.6-0.1-9.8-0.1-12.1
		c0.2-5.5-0.2-9.2-0.2-9.2c-0.4-11.4-0.7-13.4-1.2-24.5c-0.2-4.5-0.2-19,3.3-13.9c1.6,2.2,3.3,24.9,5.1,39.6s1.9,20,3.1,25.8
		c0.6,3,3.1,6.2,5.4,8.1c2.4,1.9,5.9,2.3,9-0.9c2.4-2.5,1.6-5.3,0.9-10c-1-6.6-0.7-12.9-1.6-30.1s-0.2-8-1.4-22.6
		c-0.8-7.5-0.3-15.4,2.2-15.4c0.6,0,1,0.5,1.1,1c1.6,11.5,3.6,26.2,4.3,31c0.8,4.9,1.1,15.9,3.3,26.3c0.2,0.9,1.4,11.5,8.7,10.9
		c0.2,0,0.4-0.1,0.5-0.2c5.4-3.3,5.3-10.5,5.1-13.5c-0.1-0.7,0.2-5.5,0-8.1s0.2-4.5-1.9-21.9v-0.1c-0.1-6.1-3.8-35-0.1-35.5
		c1.8-2.8,8.3,24.3,8.8,28.8c2.4,21.2,10.1,20.9,11.9,20.5c0.3-0.1,0.5-0.2,0.7-0.4C159.4,145.6,163.1,139.5,159.9,121.3z
		 M56.9,40.3L56.9,40.3L56.9,40.3z M58,38.1c-0.2,0.3-0.3,0.6-0.5,1C57.6,38.8,57.8,38.5,58,38.1z M102.9,89.1
		C75.1,62.8,73.9,55,74.5,46.9c0.6-7.7,5-14.1,14.6-14c10.2,0.2,13.8,14,13.8,14s3.5-13.8,13.8-14c9.6-0.1,14,6.3,14.6,14
		C131.9,54.9,130.6,62.8,102.9,89.1z"/>
</g>
</svg>
