<?xml version="1.0" encoding="utf-8"?>
<!-- Generator: Adobe Illustrator 25.2.1, SVG Export Plug-In . SVG Version: 6.00 Build 0)  -->
<svg version="1.1" id="Layer_1" xmlns="http://www.w3.org/2000/svg" xmlns:xlink="http://www.w3.org/1999/xlink" x="0px" y="0px"
	 viewBox="0 0 250 250" style="enable-background:new 0 0 250 250;" xml:space="preserve">
<style type="text/css">
	.st0{fill:#F56D16;}
</style>
<g>
	<path class="st0" d="M83.6,61.9C83.6,61.9,83.6,61.9,83.6,61.9L83.6,61.9C83.6,61.9,83.6,61.9,83.6,61.9z"/>
	<path class="st0" d="M184.9,146.3c-3.7-21.1-2.5-17.7-5.8-34.9c0,0,0-0.1,0-0.1c-1.7-17.8-2.8-28.9-6.6-40.7
		c-1.1-3.3-11.2-35.3-46.6-34.1c-24.5,0.9-36.6,14.8-42.3,25.5c-0.1,0.2-0.2,0.3-0.3,0.5c0.1-0.2,0.2-0.3,0.3-0.5
		c-0.7,1.3-1.3,2.5-1.8,3.6c0,0,0-0.1,0.1-0.2c0,0.1-0.1,0.1-0.1,0.2c-5.5,11-3.8,6.9-8.5,16.1c-0.1,0.1-1.3,3.4-1.3,3.5
		c-3.2,12.3-4.3,19.3-7.6,30.7c-0.3,0.9-3.4,14.2-5.3,16c-1.8,1.6-5.7,8-6.5,9.2c-0.1,0.2-0.2,0.4-0.2,0.6c0,0.8,0.1,3,2.6,4.8
		c3.2,2.2,11.9-0.2,13.1-0.6c1.2-0.4,9-4.9,12.5-15.8c2.5-7.8,6.3-21.7,8.1-23.1c0.7-0.3,1.8,5.6,3.3,12.6
		c1.6,6.8,3.6,14.7,4.3,20.6c1.2,10.1,0.6,10.4,2.1,26c0.1,1,0.4,4.6,0.8,8.4c1,9.5,0.8,7.7,1.5,12.2c0.2,1.6,0,11.5,6,16.1
		c1.3,1,4.7,2,6.3,1.3c2.4-1,2.9-3.4,3.3-5.9c0.2-1.6-0.1-9.8-0.1-12.1c0.2-5.5-0.2-9.2-0.2-9.2c-0.4-11.4-0.7-13.4-1.2-24.5
		c-0.2-4.5-0.2-19,3.3-13.9c1.6,2.2,3.3,24.9,5.1,39.6s1.9,20,3.1,25.8c0.6,3,3.1,6.2,5.4,8.1c2.4,1.9,5.9,2.3,9-0.9
		c2.4-2.5,1.6-5.3,0.9-10c-1-6.6-0.7-12.9-1.6-30.1s-0.2-8-1.4-22.6c-0.8-7.5-0.3-15.4,2.2-15.4c0.6,0,1,0.5,1.1,1
		c1.6,11.5,3.6,26.2,4.3,31c0.8,4.9,1.1,15.9,3.3,26.3c0.2,0.9,1.4,11.5,8.7,10.9c0.2,0,0.4-0.1,0.5-0.2c5.4-3.3,5.3-10.5,5.1-13.5
		c-0.1-0.7,0.2-5.5,0-8.1c-0.2-2.6,0.2-4.5-1.9-21.9c0,0,0-0.1,0-0.1c-0.1-6.1-3.8-35-0.1-35.5c1.8-2.8,8.3,24.3,8.8,28.8
		c2.4,21.2,10.1,20.9,11.9,20.5c0.3-0.1,0.5-0.2,0.7-0.4C184.4,170.6,188.1,164.5,184.9,146.3z M81.9,65.3
		C81.9,65.3,81.9,65.3,81.9,65.3C81.9,65.3,81.9,65.3,81.9,65.3z M83,63.1c-0.2,0.3-0.3,0.6-0.5,1C82.6,63.8,82.8,63.5,83,63.1z
		 M127.9,114.1c-27.8-26.3-29-34.1-28.4-42.2c0.6-7.7,5-14.1,14.6-14c10.2,0.2,13.8,14,13.8,14s3.5-13.8,13.8-14
		c9.6-0.1,14,6.3,14.6,14C156.9,79.9,155.6,87.8,127.9,114.1z"/>
</g>
</svg>
