<?xml version="1.0" encoding="utf-8"?>
<!-- Generator: Adobe Illustrator 25.2.1, SVG Export Plug-In . SVG Version: 6.00 Build 0)  -->
<svg version="1.1" id="Layer_1" xmlns="http://www.w3.org/2000/svg" xmlns:xlink="http://www.w3.org/1999/xlink" x="0px" y="0px"
	 viewBox="0 0 50 50" style="enable-background:new 0 0 50 50;" xml:space="preserve">
<style type="text/css">
	.st0{fill:#FFFFFF;}
	.st1{fill-rule:evenodd;clip-rule:evenodd;fill:#FFFFFF;}
</style>
<path class="st0" d="M24.6,47.7c-12.7,0-23-10.3-23-23s10.3-23,23-23s23,10.3,23,23S37.3,47.7,24.6,47.7z M24.6,3.7
	c-11.6,0-21,9.4-21,21s9.4,21,21,21s21-9.4,21-21S36.2,3.7,24.6,3.7z"/>
<path id="Shape_3_" class="st1" d="M24.6,15.7c2.9,0,3.3,0,4.4,0.1c1.1,0.1,1.6,0.2,2,0.4c0.5,0.2,0.9,0.4,1.3,0.8
	c0.4,0.4,0.6,0.8,0.8,1.3c0.1,0.4,0.3,1,0.4,2c0,1.2,0.1,1.5,0.1,4.4s0,3.3-0.1,4.4c0,1.1-0.2,1.6-0.4,2c-0.2,0.5-0.4,0.9-0.8,1.3
	c-0.4,0.4-0.8,0.6-1.3,0.8c-0.4,0.1-1,0.3-2,0.4c-1.2,0-1.5,0.1-4.4,0.1s-3.3,0-4.4-0.1c-1.1,0-1.6-0.2-2-0.4
	c-0.5-0.2-0.9-0.4-1.3-0.8c-0.4-0.4-0.6-0.8-0.8-1.3c-0.1-0.4-0.3-1-0.4-2c-0.1-1.2-0.1-1.5-0.1-4.4s0-3.3,0.1-4.4
	c0.1-1.1,0.2-1.6,0.4-2c0.2-0.5,0.4-0.9,0.8-1.3c0.4-0.4,0.8-0.6,1.3-0.8c0.4-0.1,1-0.3,2-0.4C21.3,15.7,21.7,15.7,24.6,15.7
	 M24.6,13.7c-3,0-3.4,0-4.5,0.1c-1.2,0.1-2,0.2-2.7,0.5c-0.7,0.3-1.3,0.7-2,1.3c-0.6,0.6-1,1.2-1.3,1.9c-0.3,0.7-0.5,1.5-0.5,2.7
	c0,1.2-0.1,1.5-0.1,4.5s0,3.4,0.1,4.5c0.1,1.2,0.2,2,0.5,2.7c0.3,0.7,0.7,1.3,1.3,2c0.6,0.6,1.2,1,1.9,1.3c0.7,0.3,1.5,0.5,2.7,0.5
	c1.2,0.1,1.5,0.1,4.5,0.1c3,0,3.4,0,4.5-0.1c1.2,0,2-0.2,2.7-0.5c0.7-0.3,1.3-0.7,2-1.3s1-1.2,1.3-1.9c0.3-0.7,0.5-1.5,0.5-2.7
	c0.1-1.2,0.1-1.5,0.1-4.5s0-3.4-0.1-4.5c0-1.2-0.2-2-0.5-2.7c-0.3-0.7-0.7-1.3-1.3-2c-0.6-0.6-1.2-1-2-1.3c-0.7-0.3-1.5-0.5-2.7-0.5
	C28,13.7,27.6,13.7,24.6,13.7z M24.6,19.1c-3.1,0-5.6,2.5-5.6,5.6s2.5,5.6,5.6,5.6s5.7-2.5,5.7-5.6S27.7,19.1,24.6,19.1z M24.6,28.4
	c-2,0-3.7-1.6-3.7-3.7s1.6-3.7,3.7-3.7c2,0,3.7,1.6,3.7,3.7S26.6,28.4,24.6,28.4z M31.8,18.9c0,0.7-0.6,1.3-1.3,1.3
	c-0.7,0-1.3-0.6-1.3-1.3c0-0.7,0.6-1.3,1.3-1.3C31.2,17.5,31.8,18.1,31.8,18.9z"/>
</svg>
